<?xml version="1.0" encoding="UTF-8" standalone="no"?>
<svg width="421px" height="126px" viewBox="0 0 421 126" version="1.1" xmlns="http://www.w3.org/2000/svg" xmlns:xlink="http://www.w3.org/1999/xlink">
    <!-- Generator: Sketch 40 (33762) - http://www.bohemiancoding.com/sketch -->
    <title>menu-white-x</title>
    <desc>Created with Sketch.</desc>
    <defs>
        <polygon id="path-1" points="329.981066 98.2393447 329.981066 0.000595151907 0 0.000595151907 0 98.2393447"></polygon>
        <polygon id="path-3" points="0 82.3079625 95.9814194 82.3079625 95.9814194 0.0675761124 0 0.0675761124"></polygon>
    </defs>
    <g id="Symbols" stroke="none" stroke-width="1" fill="none" fill-rule="evenodd">
        <g id="menu-white-x">
            <g id="menu-white" transform="translate(86.000000, 14.000000)">
                <mask id="mask-2" fill="white">
                    <use xlink:href="#path-1"></use>
                </mask>
                <g id="Clip-2"></g>
                <path d="M288.9315,39.027979 C289.353467,38.0430026 289.707811,37.0193413 289.907975,35.9123588 C290.237975,34.0733394 289.450844,32.4158413 287.77109,31.826641 C219.093221,7.86880094 146.793467,26.1786494 76.149123,24.6848181 C138.870762,10.4963966 203.607566,8.79723791 267.449041,6.63683649 C271.387402,6.50590307 271.400926,-0.130040692 267.449041,0.00089272786 C195.790352,2.42613675 122.976664,4.28598646 53.1356803,23.6075931 C49.613877,24.5836422 50.6444508,29.8269305 53.9498607,30.1245065 C129.839041,36.9717292 208.489943,12.731192 282.796746,37.1324202 C282.17732,38.087639 281.376664,38.9357305 280.459697,39.6915734 C245.063139,42.4858116 209.542156,44.1224793 174.161828,45.9168623 C124.953959,48.4105488 76.2356803,58.5519373 26.8574016,57.5461306 C22.9055164,57.4657851 22.9136311,64.1017289 26.8574016,64.1850501 C76.2113361,65.1878811 124.983713,55.2845534 174.161828,52.5498303 C203.177484,50.9399444 232.271582,49.5919254 261.319697,47.6576817 C255.945025,49.1336584 250.47568,50.2763501 245.0415,51.3059629 C226.434369,54.844141 207.75691,58.2484099 189.09568,61.4443756 C126.91232,72.0886675 64.5531393,82.2925469 2.19936885,91.7197531 C-1.27645082,92.2464625 -0.35407377,98.2783271 3.01354918,98.2396422 C102.82773,97.0344596 202.590516,92.3238323 302.128795,84.1464451 C306.037402,83.8250631 306.067156,77.1861435 302.128795,77.5105013 C218.084287,84.4142634 133.880189,88.8183876 49.6192869,90.755607 C66.6602705,87.9137567 83.6985492,85.0242941 100.755762,82.2895711 C133.111992,77.0968707 165.525025,72.25531 197.819041,66.6132699 C216.201664,63.4024254 234.776336,60.2719263 253.061582,56.427245 C260.597484,54.844141 274.665762,52.517097 283.14027,46.0745776 C297.806336,44.9140314 312.450762,43.5660123 327.054615,41.8668536 C330.938877,41.4175139 330.976746,34.7785944 327.054615,35.2338856 C314.376664,36.7068866 301.663549,37.9507541 288.9315,39.027979 Z" id="Fill-1" fill="#FFFFFF" mask="url(#mask-2)"></path>
            </g>
            <g id="Page-1" transform="translate(6.000000, 8.000000)">
                <g id="Group-3" transform="translate(0.000000, 0.625387)">
                    <mask id="mask-4" fill="white">
                        <use xlink:href="#path-3"></use>
                    </mask>
                    <g id="Clip-2"></g>
                    <path d="M14.5508129,78.6393267 C32.6050065,49.1143677 63.4086194,31.9714403 92.2891355,14.5539052 C100.817652,9.41040984 93.0416516,-3.93120609 84.4759742,1.23388759 C53.2078452,20.0892564 20.6948129,38.9353689 1.18203871,70.8546604 C-4.02983226,79.373671 9.3668129,87.118226 14.5508129,78.6393267" id="Fill-1" fill="#FFFFFF" mask="url(#mask-4)"></path>
                </g>
                <path d="M10.4711226,20.6405919 C23.3877677,46.4475474 51.6117677,57.6200708 72.0690581,76.1977465 C79.4300903,82.8839819 90.4112516,72.004579 83.0161548,65.2905744 C63.7697032,47.8113296 35.9142194,36.9751235 23.8398968,12.8559256 C19.3836387,3.95123009 6.03034839,11.7667512 10.4711226,20.6405919" id="Fill-4" fill="#FFFFFF"></path>
            </g>
        </g>
    </g>
</svg>