<?xml version="1.0" encoding="UTF-8" standalone="no"?>
<svg width="421px" height="126px" viewBox="0 0 421 126" version="1.1" xmlns="http://www.w3.org/2000/svg" xmlns:xlink="http://www.w3.org/1999/xlink">
    <!-- Generator: Sketch 40 (33762) - http://www.bohemiancoding.com/sketch -->
    <title>menu-white-x</title>
    <desc>Created with Sketch.</desc>
    <defs>
        <polygon id="path-1" points="419.975902 124.039577 419.975902 0.000751454428 0 0.000751454428 0 124.039577"></polygon>
    </defs>
    <g id="Symbols" stroke="none" stroke-width="1" fill="none" fill-rule="evenodd">
        <g id="menu-white-x">
            <g id="menu-white" transform="translate(1.000000, 1.000000)">
                <mask id="mask-2" fill="white">
                    <use xlink:href="#path-1"></use>
                </mask>
                <g id="Clip-2"></g>
                <path d="M367.731,49.2777513 C368.268049,48.0340942 368.719033,46.7415926 368.973787,45.3438874 C369.393787,43.0218932 368.391984,40.9290926 366.254115,40.1851527 C278.845918,9.93535472 186.828049,33.0538502 96.9170656,31.1676996 C176.744607,13.253026 259.136902,11.1076236 340.389689,8.37984405 C345.402148,8.21452408 345.419361,-0.164192793 340.389689,0.00112718164 C249.187721,3.06330398 156.515754,5.41159906 67.6272295,29.8075671 C63.1449344,31.0399523 64.4565738,37.6602658 68.663459,38.0359931 C165.249689,46.6814762 265.350836,16.0747374 359.923131,46.8843689 C359.13477,48.0904533 358.115754,49.1612759 356.948705,50.115623 C311.898541,53.6437015 266.690016,55.7102012 221.660508,57.9758363 C159.032311,61.1244303 97.0272295,73.9292138 34.1821475,72.6592558 C29.1524754,72.5578095 29.1628033,80.9365263 34.1821475,81.04173 C96.9962459,82.3079307 159.07018,69.803729 221.660508,66.3507959 C258.589525,64.3181117 295.618377,62.6160674 332.588705,60.1738405 C325.748213,62.0374475 318.78723,63.48024 311.871,64.7802561 C288.189197,69.2476527 264.417885,73.545972 240.66723,77.5812823 C161.52477,91.0210448 82.158541,103.904731 2.79919672,115.807769 C-1.62457377,116.472806 -0.450639344,124.088797 3.83542623,124.039952 C130.871656,122.518257 257.842475,116.570495 384.527557,106.245511 C389.502148,105.839726 389.540016,97.4572519 384.527557,97.8667946 C277.56182,106.583666 170.392967,112.144429 63.1518197,114.590413 C84.8403443,111.002218 106.525426,107.353907 128.234607,103.900974 C169.415262,97.3445338 210.668213,91.231452 251.769689,84.107664 C275.165754,80.0535674 298.806246,76.1009171 322.078377,71.2465215 C331.669525,69.2476527 349.574607,66.3094659 360.360344,58.1749717 C379.026246,56.7096356 397.664607,55.0075913 416.251328,52.8621889 C421.194934,52.2948408 421.243131,43.9123667 416.251328,44.4872293 C400.115754,46.347079 383.935426,47.9176188 367.731,49.2777513 Z" id="Fill-1" fill="#FFFFFF" mask="url(#mask-2)"></path>
            </g>
            <polygon id="Path-2" fill="#F94D55" points="156 28.6442278 262.069845 106.70453 266.931855 96.751052 159.210213 23"></polygon>
            <polyline id="Path-2" fill="#F94D55" points="266.931855 25.6442278 160.86201 103.70453 156 93.751052 263.721642 20 266.931855 25.6442278"></polyline>
        </g>
    </g>
</svg>