<?xml version="1.0" encoding="UTF-8" standalone="no"?>
<svg width="200px" height="200px" viewBox="0 0 200 200" version="1.1" xmlns="http://www.w3.org/2000/svg" xmlns:xlink="http://www.w3.org/1999/xlink">
    <!-- Generator: Sketch 40.1 (33804) - http://www.bohemiancoding.com/sketch -->
    <title>port_menu_icon</title>
    <desc>Created with Sketch.</desc>
    <defs></defs>
    <g id="Symbols" stroke="none" stroke-width="1" fill="none" fill-rule="evenodd">
        <g id="port_menu_icon" fill="#414141">
            <path d="M7.64921177,16.7088909 C9.26894448,37.347787 12.6891586,46.1758331 16.5899682,50.6575617 C27.9519168,57.6105414 45.1244463,54.8383769 53.068983,54.8383769 C61.0135197,54.8383769 57.1855701,26.6973342 55.1272766,21.3467183 C53.068983,15.9961023 6.02947906,-3.93000523 7.64921177,16.7088909 Z" id="Path-2"></path>
            <path d="M190.246891,17.8109676 C188.58492,38.4498637 185.075516,47.2779099 181.072984,51.7596384 C169.414747,58.7126181 151.794405,55.9404536 143.642696,55.9404536 C135.490987,55.9404536 143.642696,14.0397103 143.642696,14.0397103 C143.642696,14.0397103 191.908862,-2.8279285 190.246891,17.8109676" id="Path-2"></path>
            <path d="M10.4720262,112.646351 C7.89758585,92.9671885 14.4646962,84.2699588 18.7658692,80.7659592 C26.8476208,73.3941372 45.2357191,76.8398547 52.6054245,76.8398547 C59.9751298,76.8398547 61.2824716,111.443618 59.373107,116.468254 C57.4637424,121.492891 13.0464665,132.325514 10.4720262,112.646351" id="Path-2"></path>
            <path d="M190.849585,112.646351 C193.424026,92.9671885 186.856915,84.2699588 182.555742,80.7659592 C174.473991,73.3941372 156.085892,76.8398547 148.716187,76.8398547 C141.346482,76.8398547 140.03914,111.443618 141.948505,116.468254 C143.857869,121.492891 188.275145,132.325514 190.849585,112.646351" id="Path-2"></path>
            <path d="M72.7159926,24.6775946 C74.2719413,43.3208885 74.8870525,44.2807447 79.2722435,51.3473269 C91.4062205,57.613401 107.684932,55.7670847 116.386433,51.3473269 C125.087933,46.9275692 124.533391,13.4005593 118.203264,9.510169 C111.873137,5.61977869 71.1600439,6.03430063 72.7159926,24.6775946 Z" id="Path-2"></path>
            <path d="M8.79068921,183.199218 C10.4104219,162.560322 13.8306361,153.732276 17.7314456,149.250547 C29.0933942,142.297568 46.2659237,145.069732 54.2104604,145.069732 C62.1549972,145.069732 58.3270476,173.210775 56.268754,178.561391 C54.2104604,183.912007 7.1709565,203.838114 8.79068921,183.199218" id="Path-2"></path>
            <path d="M191.388369,182.057741 C189.726398,161.418845 186.216994,152.590799 182.214462,148.10907 C170.556224,141.15609 152.935882,143.928255 144.784173,143.928255 C136.632465,143.928255 144.784173,185.828998 144.784173,185.828998 C144.784173,185.828998 193.05034,202.696637 191.388369,182.057741" id="Path-2"></path>
            <path d="M73.85747,175.230515 C75.4134187,156.587221 76.0285299,155.627365 80.4137209,148.560782 C92.5476979,142.294708 108.826409,144.141024 117.52791,148.560782 C126.229411,152.98054 125.674868,186.50755 119.344741,190.39794 C113.014615,194.28833 72.3015214,193.873809 73.85747,175.230515" id="Path-2"></path>
            <path d="M74.9989475,93.1662407 C76.5548962,111.809535 77.1700074,112.769391 81.5551984,119.835973 C93.6891753,126.102047 109.967887,124.255731 118.669387,119.835973 C127.370888,115.416215 126.816346,81.8892054 120.486219,77.9988151 C114.156092,74.1084248 73.4429988,74.5229467 74.9989475,93.1662407 Z" id="Path-2"></path>
        </g>
    </g>
</svg>